<?xml version="1.0" encoding="iso-8859-1"?>
<!-- Generator: Adobe Illustrator 19.0.0, SVG Export Plug-In . SVG Version: 6.00 Build 0)  -->
<svg xmlns="http://www.w3.org/2000/svg" xmlns:xlink="http://www.w3.org/1999/xlink" version="1.1" id="Capa_1" x="0px" y="0px" viewBox="0 0 512 512" style="enable-background:new 0 0 512 512;" xml:space="preserve" width="512px" height="512px">
<g>
	<g>
		<path d="M69.11,55.64c-0.09-0.479-0.239-0.959-0.42-1.41c-0.189-0.449-0.42-0.89-0.689-1.29c-0.28-0.409-0.59-0.8-0.94-1.14    c-0.34-0.35-0.72-0.66-1.13-0.939c-0.41-0.271-0.85-0.5-1.3-0.681c-0.45-0.19-0.92-0.34-1.399-0.43c-0.97-0.2-1.969-0.2-2.929,0    c-0.48,0.09-0.96,0.24-1.409,0.43c-0.45,0.181-0.89,0.41-1.29,0.681c-0.41,0.279-0.8,0.59-1.14,0.939    c-0.351,0.34-0.66,0.73-0.94,1.14c-0.27,0.4-0.5,0.841-0.689,1.29c-0.181,0.45-0.33,0.931-0.42,1.41    c-0.101,0.48-0.15,0.971-0.15,1.459c0,0.49,0.05,0.98,0.15,1.47c0.09,0.479,0.239,0.949,0.42,1.399    c0.189,0.45,0.42,0.891,0.689,1.29c0.28,0.41,0.59,0.8,0.94,1.141c0.34,0.35,0.729,0.659,1.14,0.939    c0.4,0.271,0.84,0.5,1.29,0.691c0.45,0.18,0.93,0.33,1.409,0.42c0.479,0.1,0.97,0.149,1.459,0.149c0.49,0,0.979-0.05,1.47-0.149    c0.481-0.09,0.95-0.24,1.399-0.42c0.45-0.191,0.89-0.42,1.3-0.691c0.41-0.28,0.79-0.59,1.13-0.939    c0.351-0.341,0.66-0.73,0.94-1.141c0.27-0.399,0.5-0.84,0.689-1.29c0.181-0.45,0.33-0.92,0.42-1.399    c0.101-0.49,0.15-0.98,0.15-1.47C69.26,56.611,69.21,56.121,69.11,55.64z" fill="#E6E6E6"/>
	</g>
</g>
<g>
	<g>
		<path d="M100.849,55.64c-0.09-0.479-0.239-0.959-0.42-1.41c-0.189-0.449-0.42-0.89-0.689-1.29c-0.28-0.409-0.59-0.8-0.94-1.14    c-0.34-0.35-0.729-0.66-1.14-0.939c-0.4-0.271-0.84-0.5-1.29-0.681c-0.45-0.19-0.92-0.34-1.399-0.43c-0.97-0.2-1.969-0.2-2.929,0    c-0.48,0.09-0.96,0.24-1.409,0.43c-0.45,0.181-0.89,0.41-1.29,0.681c-0.41,0.279-0.8,0.59-1.14,0.939    c-0.351,0.34-0.66,0.73-0.94,1.14c-0.27,0.4-0.5,0.841-0.68,1.29c-0.19,0.45-0.34,0.931-0.43,1.41    c-0.101,0.48-0.15,0.971-0.15,1.459c0,0.49,0.05,0.98,0.15,1.47c0.09,0.479,0.239,0.949,0.43,1.399    c0.18,0.45,0.41,0.891,0.68,1.29c0.28,0.41,0.59,0.8,0.94,1.141c0.34,0.35,0.729,0.659,1.14,0.939c0.4,0.271,0.84,0.5,1.29,0.691    c0.45,0.18,0.93,0.33,1.409,0.42c0.479,0.1,0.97,0.149,1.46,0.149c0.49,0,0.979-0.05,1.469-0.149c0.48-0.09,0.95-0.24,1.399-0.42    c0.45-0.191,0.89-0.42,1.29-0.691c0.41-0.28,0.8-0.59,1.14-0.939c0.351-0.341,0.66-0.73,0.94-1.141    c0.27-0.399,0.5-0.84,0.689-1.29c0.181-0.45,0.33-0.92,0.42-1.399c0.101-0.49,0.15-0.98,0.15-1.47    C100.999,56.611,100.949,56.121,100.849,55.64z" fill="#E6E6E6"/>
	</g>
</g>
<g>
	<g>
		<path d="M132.588,55.64c-0.09-0.479-0.239-0.959-0.42-1.41c-0.189-0.449-0.42-0.89-0.689-1.29c-0.28-0.409-0.59-0.8-0.94-1.14    c-0.34-0.35-0.729-0.66-1.14-0.939c-0.4-0.271-0.84-0.5-1.29-0.681c-0.45-0.19-0.92-0.34-1.4-0.43c-0.97-0.2-1.969-0.2-2.929,0    c-0.48,0.09-0.95,0.24-1.41,0.43c-0.45,0.181-0.89,0.41-1.29,0.681c-0.41,0.279-0.8,0.59-1.14,0.939    c-0.351,0.34-0.66,0.73-0.94,1.14c-0.27,0.4-0.5,0.841-0.68,1.29c-0.19,0.45-0.34,0.931-0.43,1.41    c-0.101,0.48-0.15,0.971-0.15,1.459c0,0.49,0.05,0.98,0.15,1.47c0.09,0.479,0.239,0.949,0.43,1.399    c0.18,0.45,0.41,0.891,0.68,1.29c0.28,0.41,0.59,0.8,0.94,1.141c0.34,0.35,0.729,0.659,1.14,0.939c0.4,0.271,0.84,0.5,1.29,0.691    c0.46,0.18,0.93,0.33,1.41,0.42c0.479,0.1,0.97,0.149,1.459,0.149s0.979-0.05,1.469-0.149c0.48-0.09,0.95-0.24,1.4-0.42    c0.45-0.191,0.89-0.42,1.29-0.691c0.41-0.28,0.8-0.59,1.14-0.939c0.351-0.341,0.66-0.73,0.94-1.141    c0.27-0.399,0.5-0.84,0.689-1.29c0.181-0.45,0.33-0.92,0.42-1.399c0.101-0.49,0.15-0.98,0.15-1.47    C132.738,56.611,132.688,56.121,132.588,55.64z" fill="#E6E6E6"/>
	</g>
</g>
<g>
	<g>
		<path d="M381.653,49.605H164.229c-4.142,0-7.497,3.356-7.497,7.497s3.356,7.497,7.497,7.497h217.424    c4.142,0,7.497-3.356,7.497-7.497S385.794,49.605,381.653,49.605z" fill="#E6E6E6"/>
	</g>
</g>
<g>
	<g>
		<path d="M448.629,49.605h-28.49c-4.142,0-7.497,3.356-7.497,7.497s3.356,7.497,7.497,7.497h28.49c4.142,0,7.497-3.356,7.497-7.497    S452.771,49.605,448.629,49.605z" fill="#E6E6E6"/>
	</g>
</g>
<g>
	<g>
		<path d="M270.692,250.108c-10.148-10.209-36.073-8.792-36.073,16.755v39.992c0,7.23,1.901,12.849,5.648,16.695    c9.996,10.278,36.206,8.848,36.206-16.695v-39.992C276.473,259.602,274.528,253.963,270.692,250.108z M260.056,313.04    c-1.861,1.871-7.221,1.924-9.044,0.053c-2.715-2.788-0.688-15.765-1.399-46.229c0-4.455,1.071-5.901,1.403-6.241    c1.808-1.862,7.172-1.822,9.043,0.059c0.89,0.893,1.419,3.205,1.419,6.182C261.066,302.182,262.527,310.559,260.056,313.04z" fill="#E6E6E6"/>
	</g>
</g>
<g>
	<g>
		<path d="M388.286,296.478c-2.316-4.371-6.281-7.006-10.982-7.345c-0.278-1.231,1.823-10.887-8.092-15.373    c-4.768-2.149-10.081-2.735-15.011-2.059l12.569-25.353c8.971-18.058-23.676-33.447-34.112-12.455l-32.776,64.641    c-0.671-26.463,1.864-38.388-3.437-51.026c-4.701-11.189-13.206-18.464-24.402-21.596c-10.339-2.888-22.843-2.891-33.094,0.007    c-11.068,3.131-19.611,10.406-24.305,21.592c-5.264,12.544-2.813,24.841-3.435,47.448c-2.375-3.46-5.933-5.529-10.06-5.827    c-0.276-1.223,1.823-10.888-8.093-15.373c-4.771-2.151-10.084-2.734-15.011-2.059c11.293-23.534,14.102-26.371,14.102-31.55    c0-15.597-26.721-24.207-35.644-6.259c-37.361,73.842-36.673,70.67-36.673,76.282c0,9.702,7.07,15.646,15.302,15.646h27.615    c0.721,4.577-2.963,15.332,7.857,20.656c7.005,3.454,15.676,3.453,22.684,0.002c10.81-5.324,7.151-16.185,7.86-20.704    c4.922-0.431,8.579-3.781,10.991-8.071c1.756,9.543,6.366,17.194,12.305,22.353c12.474,10.831,33.097,11.8,47.595,7.747    c14.294-3.988,23.549-14.763,26.575-28.452c2.586,3.796,7.13,6.468,12.671,6.468h27.616c0.721,4.581-2.964,15.333,7.857,20.657    c12.014,5.919,30.544,1.459,30.544-12.157v-8.543h0.002C387.796,324.857,395.138,309.385,388.286,296.478z M198.781,310.827    h-5.129c-4.142,0-7.497,3.356-7.497,7.497v14.936c-2.548,1.081-5.864,1.083-8.413,0v-14.936c0-4.142-3.356-7.497-7.497-7.497    c-36.494-0.007-35.177,0.018-35.379-0.018c-0.072-0.483-0.045-0.775,0.026-1.198c0.05-0.1,35.42-70.035,36.022-70.345    c1.941-1.006,4.351-0.246,5.898,1.165l-26.192,52.835c-2.463,4.967,1.149,10.827,6.718,10.827h12.906    c4.142,0,7.497-3.356,7.497-7.497v-9.465c2.534-0.923,5.835-0.94,8.413,0v9.465c0,4.142,3.356,7.497,7.497,7.497h5.513    C200.032,306.124,200.146,308.855,198.781,310.827z M276.817,328.735c-9.581,8.316-32.788,8.471-42.538,0.001    c-11.86-10.303-6.941-26.071-8.074-61.873c0-19.234,10.029-28.118,29.267-28.118c19.401,0,29.417,8.844,29.417,28.118    C284.321,304.353,287.983,319.034,276.817,328.735z M374.936,310.827h-5.129c-4.141,0-7.497,3.356-7.497,7.497v14.937    c-2.53,1.072-5.844,1.09-8.412,0v-14.937c0-4.142-3.356-7.497-7.497-7.497c-36.494-0.007-35.181,0.018-35.379-0.018    c-0.072-0.478-0.046-0.769,0.025-1.196c0.05-0.1,35.42-70.037,36.022-70.347c0.685-0.354,1.33-0.519,2.029-0.519    c0.109,0.044,2.073,0.046,3.87,1.684l-26.192,52.835c-2.463,4.967,1.149,10.827,6.718,10.827h12.905    c4.142,0,7.497-3.356,7.497-7.497v-9.465c2.595-0.945,5.9-0.917,8.412,0v9.465c0,4.142,3.357,7.497,7.497,7.497h5.514    C376.186,306.123,376.299,308.857,374.936,310.827z" fill="#E6E6E6"/>
	</g>
</g>
<g>
	<g>
		<path d="M279.287,368.497h-16.206c-4.142,0-7.497,3.356-7.497,7.497c0,4.141,3.356,7.497,7.497,7.497h16.206    c4.142,0,7.497-3.357,7.497-7.497S283.428,368.497,279.287,368.497z" fill="#E6E6E6"/>
	</g>
</g>
<g>
	<g>
		<path d="M365.717,368.497h-55.95c-4.142,0-7.497,3.356-7.497,7.497c0,4.141,3.356,7.497,7.497,7.497h55.95    c4.142,0,7.497-3.357,7.497-7.497S369.858,368.497,365.717,368.497z" fill="#E6E6E6"/>
	</g>
</g>
<g>
	<g>
		<path d="M504.293,184.475c-4.142,0-7.497,3.356-7.497,7.497v275.799c0,16.061-13.066,29.13-29.129,29.13H128.49    c-4.142,0-7.497,3.356-7.497,7.497c0,4.142,3.356,7.497,7.497,7.497h339.176c24.33,0,44.124-19.794,44.124-44.125V191.972    C511.79,187.831,508.433,184.475,504.293,184.475z" fill="#E6E6E6"/>
	</g>
</g>
<g>
	<g>
		<path d="M506.457,23.213c-7.481-13.753-22.063-23.109-38.79-23.109c-15.989,0-404.599,0-423.542,0C19.794,0.104,0,19.898,0,44.229    C0,66.744,0,453.62,0,467.771c0,24.331,19.794,44.125,44.125,44.125h49.379c4.142,0,7.497-3.356,7.497-7.497    c0-4.142-3.356-7.497-7.497-7.497H44.125c-16.061,0-29.13-13.067-29.13-29.13V114.1h481.801v42.883    c0,4.142,3.356,7.497,7.497,7.497s7.497-3.356,7.497-7.497C511.79,39.901,513.621,36.392,506.457,23.213z M496.795,99.106H14.995    V44.229c0-16.061,13.067-29.13,29.13-29.13h423.541c15.995,0,29.13,13.001,29.13,29.13V99.106z" fill="#E6E6E6"/>
	</g>
</g>
<g>
	<g>
		<path d="M419.4,165.053c-4.724-0.001-329.791-0.035-327.319-0.034c-13.216,0-23.971,10.753-23.974,23.971l-0.031,229.844    c-0.002,13.25,10.718,23.975,23.971,23.977c4.105,0,260.002,0.027,258.088,0.027c4.141,0,7.497-3.356,7.497-7.496    c0-4.142-3.356-7.498-7.496-7.498c-270.64-0.991-259.444,2.336-264.436-2.658c-4.991-4.994-1.672,3.981-2.597-236.192    c0.001-4.951,4.029-8.978,8.979-8.978c10.25,0.001,312.937,0.033,327.318,0.034c4.962,0,8.977,4.016,8.977,8.979    c-0.987,240.482,2.335,231.2-2.658,236.192c-2.886,2.886-6.244,2.608-6.35,2.629c-21.201-0.002-13.045-0.001-34.247-0.003    c-4.141,0-7.497,3.356-7.497,7.496c0,4.142,3.356,7.498,7.496,7.498c0.117,0,34.357,0.003,34.249,0.003    c13.246,0,23.971-10.72,23.973-23.97l0.028-229.845C443.374,175.781,432.653,165.053,419.4,165.053z" fill="#E6E6E6"/>
	</g>
</g>
<g>
</g>
<g>
</g>
<g>
</g>
<g>
</g>
<g>
</g>
<g>
</g>
<g>
</g>
<g>
</g>
<g>
</g>
<g>
</g>
<g>
</g>
<g>
</g>
<g>
</g>
<g>
</g>
<g>
</g>
</svg>
