<?xml version="1.0" standalone="no"?><!-- Generator: Gravit.io --><svg xmlns="http://www.w3.org/2000/svg" xmlns:xlink="http://www.w3.org/1999/xlink" style="isolation:isolate" viewBox="455.873 426.43 15 22.5" width="15" height="22.5"><g id="code-fork-symbol"><g id="Group"><path d=" M 470.053 429.126 C 469.506 428.579 468.842 428.306 468.06 428.306 C 467.279 428.306 466.615 428.579 466.068 429.126 C 465.522 429.673 465.248 430.337 465.248 431.118 C 465.248 431.626 465.375 432.097 465.629 432.531 C 465.883 432.966 466.224 433.305 466.654 433.549 C 466.654 434.057 466.613 434.504 466.53 434.89 C 466.447 435.276 466.31 435.615 466.12 435.908 C 465.929 436.201 465.732 436.45 465.526 436.655 C 465.321 436.86 465.033 437.053 464.662 437.234 C 464.291 437.414 463.947 437.565 463.629 437.688 C 463.312 437.81 462.885 437.954 462.348 438.12 C 461.371 438.422 460.619 438.701 460.092 438.955 L 460.092 431.674 C 460.521 431.43 460.863 431.091 461.117 430.656 C 461.371 430.222 461.498 429.751 461.498 429.243 C 461.498 428.462 461.225 427.798 460.678 427.251 C 460.131 426.704 459.467 426.43 458.686 426.43 C 457.904 426.43 457.24 426.704 456.693 427.251 C 456.147 427.798 455.873 428.462 455.873 429.243 C 455.873 429.751 456 430.222 456.254 430.656 C 456.508 431.091 456.849 431.43 457.279 431.674 L 457.279 443.686 C 456.849 443.93 456.508 444.27 456.254 444.704 C 456 445.139 455.873 445.61 455.873 446.118 C 455.873 446.899 456.146 447.563 456.693 448.11 C 457.24 448.656 457.904 448.93 458.686 448.93 C 459.467 448.93 460.131 448.656 460.678 448.11 C 461.224 447.563 461.498 446.899 461.498 446.118 C 461.498 445.61 461.371 445.139 461.117 444.704 C 460.863 444.27 460.521 443.93 460.092 443.686 L 460.092 443.305 C 460.092 442.632 460.294 442.143 460.7 441.841 C 461.105 441.538 461.932 441.191 463.183 440.801 C 464.501 440.381 465.492 439.985 466.156 439.614 C 468.344 438.374 469.447 436.352 469.467 433.549 C 469.897 433.305 470.238 432.966 470.492 432.531 C 470.746 432.097 470.873 431.626 470.873 431.118 C 470.873 430.337 470.6 429.673 470.053 429.126 Z  M 459.682 447.114 C 459.408 447.388 459.076 447.524 458.686 447.524 C 458.295 447.524 457.963 447.388 457.69 447.114 C 457.416 446.841 457.279 446.509 457.279 446.118 C 457.279 445.727 457.416 445.396 457.69 445.122 C 457.963 444.849 458.295 444.712 458.686 444.712 C 459.076 444.712 459.408 444.849 459.682 445.122 C 459.955 445.396 460.092 445.727 460.092 446.118 C 460.092 446.509 459.955 446.841 459.682 447.114 Z  M 459.682 430.239 C 459.408 430.513 459.076 430.649 458.686 430.649 C 458.295 430.649 457.963 430.513 457.69 430.239 C 457.416 429.966 457.279 429.634 457.279 429.243 C 457.279 428.852 457.416 428.52 457.69 428.247 C 457.963 427.974 458.295 427.837 458.686 427.837 C 459.076 427.837 459.408 427.974 459.682 428.247 C 459.955 428.52 460.092 428.852 460.092 429.243 C 460.092 429.634 459.955 429.966 459.682 430.239 Z  M 469.057 432.114 C 468.783 432.387 468.451 432.524 468.061 432.524 C 467.67 432.524 467.338 432.387 467.065 432.114 C 466.791 431.841 466.655 431.509 466.655 431.118 C 466.655 430.727 466.791 430.396 467.065 430.122 C 467.338 429.849 467.67 429.712 468.061 429.712 C 468.451 429.712 468.783 429.849 469.057 430.122 C 469.33 430.395 469.467 430.727 469.467 431.118 C 469.467 431.509 469.33 431.841 469.057 432.114 Z " fill="#4B60CB"/></g></g></svg>