<?xml version="1.0" encoding="iso-8859-1"?>
<!-- Generator: Adobe Illustrator 16.0.0, SVG Export Plug-In . SVG Version: 6.00 Build 0)  -->
<!DOCTYPE svg PUBLIC "-//W3C//DTD SVG 1.1//EN" "http://www.w3.org/Graphics/SVG/1.1/DTD/svg11.dtd">
<svg xmlns="http://www.w3.org/2000/svg" xmlns:xlink="http://www.w3.org/1999/xlink" version="1.1" id="Capa_1" x="0px" y="0px" width="512px" height="512px" viewBox="0 0 512 512" style="enable-background:new 0 0 512 512;" xml:space="preserve">
<g>
	<path d="M117.639,124.36c-25.396,0-47.242,8.403-65.542,25.208c-19.043,17.926-28.57,40.33-28.57,67.218   c0,17.926,5.188,34.731,15.647,50.416c9.337,14.563,19.09,23.903,31.889,28.012v1.121c-12.799,5.224-18.483,18.295-18.483,39.209   c0,16.062,5.686,28.011,18.483,35.854v1.121c-35.327,11.571-51.496,33.047-51.496,64.413c0,27.269,11.874,47.244,35.033,59.939   C72.895,506.959,96.389,512,124.773,512c69.085,0,103.703-28.941,103.703-86.832c0-36.223-26.661-58.441-80.064-66.658   c-12.323-1.863-21.643-6.348-27.991-13.445c-4.854-4.854-7.271-9.709-7.271-14.562c0-13.815,7.479-21.848,22.41-24.088   c22.779-3.356,41.364-13.912,55.743-31.647c14.375-17.74,21.565-38.56,21.565-62.458c0-7.469-2.259-15.498-5.244-24.086   c9.709-2.244,16.525-4.297,21.646-6.166V124.36c-22.527,8.964-43.495,13.442-61.421,13.442   C152.162,128.841,135.937,124.36,117.639,124.36z M123.801,403.885c31.372,0,47.052,9.521,47.052,28.57   c0,20.168-14.377,30.246-43.132,30.246c-32.862,0-49.293-9.711-49.293-29.127C78.427,413.779,93.55,403.885,123.801,403.885z    M119.88,256c-23.527,0-35.293-12.882-35.293-38.654c0-27.631,11.766-41.453,35.293-41.453c11.201,0,19.979,4.298,26.326,12.884   c5.229,7.845,7.845,17.18,7.845,28.011C154.051,242.927,142.658,256,119.88,256z M290.191,0c-10.828,0-20.069,4.107-27.728,12.324   c-7.656,8.218-11.484,18.108-11.484,29.688c0,11.205,3.829,20.91,11.484,29.129c7.654,8.217,16.896,12.32,27.728,12.32   c10.455,0,19.515-4.104,27.171-12.32c7.655-8.219,11.479-17.924,11.479-29.129c0-11.58-3.824-21.472-11.479-29.688   C309.703,4.107,300.646,0,290.191,0z M321.565,127.999h-63.304c0.747,7.168-0.32,18.021-0.32,35.57v174.216   c0,17.928,1.067,32.387,0.32,38.018h63.304c-0.75-8.188-2.697-22.334-2.697-41.379V162.451   C318.865,146.019,320.815,135.167,321.565,127.999z M461.168,322.1c-16.437,0-24.541-12.514-24.541-37.533V181.247h24.932   c4.479,0,8.517-0.246,13.56,0.123c5.043,0.374,7.076,0.125,9.64,0.125V128h-48.129v-23.808c0-8.961,1.407-17.151,2.526-22.271   h-64.979c1.121,5.12,1.015,12.938,1.015,23.395V128h-28.16v53.494c7.683-1.12,14.545-1.678,19.397-1.678l8.763,0.559v0.292l0,0   v101.101c0,31.371,3.979,54.336,11.817,68.9c10.461,19.42,28.812,29.129,56.067,29.129c19.425,0,36.56-3.732,49.356-11.205v-56.016   C482.196,318.926,472.742,322.1,461.168,322.1z" fill="#5b8aef"/>
</g>
</svg>
