<?xml version="1.0" standalone="no"?><!-- Generator: Gravit.io --><svg xmlns="http://www.w3.org/2000/svg" xmlns:xlink="http://www.w3.org/1999/xlink" style="isolation:isolate" viewBox="119.968 51.82 110.063 110.063" width="110.063" height="110.063"><g id="logo"><g opacity="0.83"><path d=" M 222.223 137.393 L 207.644 148.752 L 193.066 160.11 C 191.533 161.304 188.723 162.079 186.795 161.84 L 168.455 159.563 L 150.115 157.285 C 148.187 157.046 145.652 155.607 144.458 154.075 L 133.1 139.496 L 121.742 124.917 C 120.548 123.385 119.772 120.575 120.012 118.647 L 122.289 100.307 L 124.566 81.967 C 124.806 80.039 126.244 77.504 127.777 76.31 L 142.356 64.951 L 156.934 53.593 C 158.467 52.399 161.277 51.624 163.205 51.863 L 181.545 54.141 L 199.885 56.418 C 201.813 56.657 204.348 58.096 205.542 59.628 L 216.9 74.207 L 228.258 88.786 C 229.452 90.318 230.228 93.128 229.988 95.056 L 227.711 113.396 L 225.434 131.737 C 225.194 133.665 223.756 136.199 222.223 137.393 Z " fill="rgb(247,75,95)"/></g><g id="logo"><g transform="matrix(1,0,0,1,145.5,75.771)"><text transform="matrix(1,0,0,1,1.377,54.287)" style="font-family:&quot;Risque&quot;;font-weight:400;font-size:60px;font-style:normal;fill:#ffffff;stroke:none;">D</text></g><g transform="matrix(1,0,0,1,168.5,68.586)"><text transform="matrix(1,0,0,1,0,55.869)" style="font-family:&quot;Redressed&quot;;font-weight:400;font-size:60px;font-style:normal;fill:#ffffff;stroke:none;">L</text></g><g id="icon"><g id="Group"><g id="c1_ray"><path d=" M 185.8 91.815 L 166.75 110.754 L 173.816 110.754 L 168.385 125.123 L 187.89 106.183 L 180.823 106.183 L 185.8 91.815 Z " fill="rgb(255,255,255)"/></g></g></g></g></g></svg>
