<?xml version="1.0" standalone="no"?><!-- Generator: Gravit.io --><svg xmlns="http://www.w3.org/2000/svg" xmlns:xlink="http://www.w3.org/1999/xlink" style="isolation:isolate" viewBox="1315.873 39.642 20 20.716" width="20" height="20.716"><g id="search (1)"><path d=" M 1335.569 58.511 L 1330.639 53.383 C 1331.906 51.876 1332.601 49.98 1332.601 48.006 C 1332.601 43.394 1328.849 39.642 1324.237 39.642 C 1319.625 39.642 1315.873 43.394 1315.873 48.006 C 1315.873 52.618 1319.625 56.37 1324.237 56.37 C 1325.968 56.37 1327.618 55.848 1329.029 54.857 L 1333.996 60.023 C 1334.204 60.239 1334.483 60.358 1334.783 60.358 C 1335.066 60.358 1335.335 60.25 1335.539 60.053 C 1335.972 59.636 1335.986 58.945 1335.569 58.511 Z  M 1324.237 41.824 C 1327.646 41.824 1330.419 44.597 1330.419 48.006 C 1330.419 51.415 1327.646 54.188 1324.237 54.188 C 1320.828 54.188 1318.055 51.415 1318.055 48.006 C 1318.055 44.597 1320.828 41.824 1324.237 41.824 Z " fill="rgb(115,159,252)"/></g></svg>